<svg fill="none" height="59" viewBox="0 0 68 59" width="68" xmlns="http://www.w3.org/2000/svg"><path d="M65.875 42.4062H64.7063C64.4416 35.9789 61.5123 29.8505 56.4567 25.1471C51.401 20.4437 44.5588 17.4815 37.1875 16.8049V13.8281C37.1875 13.0946 36.8517 12.3912 36.2539 11.8725C35.6561 11.3539 34.8454 11.0625 34 11.0625C33.1546 11.0625 32.3439 11.3539 31.7461 11.8725C31.1483 12.3912 30.8125 13.0946 30.8125 13.8281V16.8049C23.4412 17.4815 16.599 20.4437 11.5433 25.1471C6.48773 29.8505 3.55841 35.9789 3.29375 42.4062H2.125C1.84321 42.4062 1.57296 42.5034 1.3737 42.6763C1.17444 42.8491 1.0625 43.0836 1.0625 43.3281V47.0156C1.0625 47.2601 1.17444 47.4946 1.3737 47.6675C1.57296 47.8404 1.84321 47.9375 2.125 47.9375H65.875C66.1568 47.9375 66.427 47.8404 66.6263 47.6675C66.8256 47.4946 66.9375 47.2601 66.9375 47.0156V43.3281C66.9375 43.0836 66.8256 42.8491 66.6263 42.6763C66.427 42.5034 66.1568 42.4062 65.875 42.4062ZM32.9375 13.8281C32.9375 13.5836 33.0494 13.3491 33.2487 13.1763C33.448 13.0034 33.7182 12.9062 34 12.9062C34.2818 12.9062 34.552 13.0034 34.7513 13.1763C34.9506 13.3491 35.0625 13.5836 35.0625 13.8281V16.6859C34.7087 16.6758 34.3559 16.6629 34 16.6629C33.6441 16.6629 33.2913 16.6758 32.9375 16.6859V13.8281ZM34 18.5057C41.4 18.5139 48.5091 21.0071 53.8373 25.4627C59.1654 29.9182 62.299 35.9903 62.5813 42.4062H5.41875C5.70097 35.9903 8.83456 29.9182 14.1627 25.4627C19.4909 21.0071 26.6 18.5139 34 18.5057ZM64.8125 46.0938H3.1875V44.25H64.8125V46.0938Z" fill="#927F6B"></path><path d="M26.0313 36.875C27.0176 36.875 27.9634 36.5351 28.6608 35.93C29.3582 35.3249 29.75 34.5042 29.75 33.6484V27.6562H27.625V33.6484C27.625 34.0152 27.4571 34.3669 27.1582 34.6262C26.8594 34.8856 26.454 35.0312 26.0313 35.0312C25.6086 35.0312 25.2032 34.8856 24.9043 34.6262C24.6055 34.3669 24.4375 34.0152 24.4375 33.6484C24.4366 33.4039 24.5148 33.164 24.6632 32.956C24.8116 32.7481 25.0242 32.5804 25.2769 32.4721L25.976 32.1679L25.0198 30.5196L24.3228 30.8238C23.7165 31.0841 23.2067 31.4869 22.8513 31.9862C22.4959 32.4856 22.3092 33.0615 22.3125 33.6484C22.3125 34.5042 22.7043 35.3249 23.4017 35.93C24.0991 36.5351 25.045 36.875 26.0313 36.875Z" fill="#927F6B"></path><path d="M31.8742 33.1874H33.9992V33.0298C34.0023 32.0816 33.7886 31.1423 33.3704 30.2662C32.9522 29.3902 32.3379 28.5949 31.5629 27.9263L30.0605 29.2307C30.6374 29.7283 31.0947 30.3202 31.406 30.9721C31.7173 31.6241 31.8765 32.3231 31.8742 33.0288V33.1874Z" fill="#927F6B"></path><path d="M30.8125 36.875C32.3925 36.8735 33.931 36.4361 35.2057 35.6261C36.4804 34.8161 37.4252 33.6754 37.9036 32.3689L38.5613 33.7001C38.891 34.3692 39.4402 34.9396 40.1404 35.3401C40.8407 35.7407 41.6612 35.9539 42.5 35.9531H44.625C44.9068 35.9531 45.177 35.856 45.3763 35.6831C45.5756 35.5102 45.6875 35.2758 45.6875 35.0313V34.1094C45.6875 33.1314 45.2397 32.1935 44.4427 31.5019C43.6457 30.8104 42.5647 30.4219 41.4375 30.4219V32.2656C42.0011 32.2656 42.5416 32.4599 42.9401 32.8057C43.3386 33.1514 43.5625 33.6204 43.5625 34.1094H42.5C42.0773 34.1097 41.6638 34.0023 41.3108 33.8005C40.9578 33.5988 40.6808 33.3116 40.5142 32.9746L38.1639 28.2149C38.0675 28.0198 37.8964 27.8596 37.6796 27.7613C37.4627 27.663 37.2135 27.6326 36.9738 27.6753C36.7342 27.718 36.5188 27.8312 36.3642 27.9956C36.2096 28.1601 36.1251 28.3659 36.125 28.5781V30.4219C36.1236 31.644 35.5634 32.8157 34.5675 33.6799C33.5715 34.544 32.221 35.03 30.8125 35.0313V36.875Z" fill="#927F6B"></path><path d="M48.875 23.9688H19.125C18.8432 23.9688 18.573 24.0659 18.3737 24.2388C18.1744 24.4116 18.0625 24.6461 18.0625 24.8906V39.6406C18.0625 39.8851 18.1744 40.1196 18.3737 40.2925C18.573 40.4654 18.8432 40.5625 19.125 40.5625H48.875C49.1568 40.5625 49.427 40.4654 49.6263 40.2925C49.8256 40.1196 49.9375 39.8851 49.9375 39.6406V24.8906C49.9375 24.6461 49.8256 24.4116 49.6263 24.2388C49.427 24.0659 49.1568 23.9688 48.875 23.9688ZM47.8125 38.7188H20.1875V25.8125H47.8125V38.7188Z" fill="#927F6B"></path></svg>