<svg fill="none" height="60" viewBox="0 0 60 60" width="60" xmlns="http://www.w3.org/2000/svg"><path clip-rule="evenodd" d="M54.1941 34.4533C54.1941 34.7712 53.9402 35.0293 53.6211 35.0293H50.1684C50.1468 35.0293 50.1249 35.0294 50.1104 35.0308C48.7725 35.1419 46.5355 35.9137 46.6433 40.3819L47.0567 48.9544C41.7038 48.9887 37.6128 47.9694 34.3126 45.7681L38.331 35.5638C38.3382 35.5368 38.3455 35.5091 38.3599 35.4814C38.6863 34.3308 38.6936 33.0292 38.3745 31.5033C38.3672 31.4902 38.3672 31.4756 38.3599 31.4632L35.8068 21.4624C35.727 21.162 35.9084 20.8491 36.2057 20.7652L36.3652 20.7208C36.6408 20.642 36.9165 20.7718 37.0398 21.0372L40.2603 28.1857C40.8043 29.3931 41.6022 30.403 42.5741 31.1715C43.06 31.6054 43.633 31.948 44.2496 32.1726C44.9096 32.4584 45.6205 32.6582 46.3603 32.7618L53.7006 33.7782C53.9835 33.8183 54.1938 34.0581 54.1938 34.3484V34.4533H54.1941ZM47.7966 57.379C47.9424 57.9087 47.3831 58.3754 46.8972 58.103C46.7522 58.0221 46.6433 57.8901 46.5998 57.7312L44.5471 50.7096C44.9751 50.735 45.4175 50.7526 45.8599 50.762L47.7966 57.379ZM37.5694 55.0246C37.6275 54.8657 37.6202 54.6951 37.5477 54.5456L35.865 50.9676C35.7634 50.7584 35.749 50.5185 35.8215 50.2975L36.2784 48.8916C35.894 48.7239 35.5096 48.5461 35.1397 48.3543L34.3708 50.727L36.4163 55.0815C36.654 55.579 37.375 55.5572 37.5694 55.0246ZM45.976 23.9764C44.1481 23.9764 42.6539 25.4748 42.6539 27.3159C42.6539 28.3171 43.0963 29.216 43.7926 29.8286C44.1335 30.0816 44.4962 30.2953 44.8878 30.471C45.2287 30.5899 45.5986 30.6547 45.9758 30.6547C47.811 30.6547 49.2979 29.1571 49.2979 27.3161C49.298 25.4747 47.8111 23.9764 45.976 23.9764ZM53.9475 31.9773L49.2038 31.3204C50.3644 30.3739 51.1115 28.9317 51.1115 27.3159C51.1115 24.4722 48.805 22.1587 45.9761 22.1587C43.7204 22.1587 41.7982 23.6337 41.1164 25.6731L38.6866 20.2855C38.1934 19.2006 37.011 18.6485 35.8723 18.9708L35.7127 19.0153C34.4797 19.366 33.7326 20.666 34.0517 21.915L36.6048 31.8947C36.8514 33.0803 36.8587 34.1047 36.6267 34.938L32.369 45.7695C32.2167 46.156 32.3473 46.5957 32.6808 46.8399C32.9636 47.0448 33.2465 47.2395 33.5366 47.4283L32.5357 50.5046C32.4632 50.727 32.4776 50.9669 32.5792 51.1761L34.7842 55.8594C35.7049 57.8184 38.5378 57.6878 39.274 55.6362C39.4916 55.0194 39.4554 54.3566 39.1797 53.7674L37.6492 50.5183L37.9683 49.5341C39.4044 50.0014 40.9422 50.3354 42.6104 50.5373L44.8589 58.2429C45.4734 60.3142 48.2847 60.6462 49.327 58.7263C49.6388 58.1517 49.7115 57.4911 49.5301 56.8656L47.7458 50.7605C48.0914 50.7551 48.3826 50.7702 48.667 50.4652C48.8338 50.2851 48.9208 50.0466 48.9063 49.8031L48.4566 40.3075C48.3914 37.0314 49.7188 36.8791 50.1974 36.847H53.621C54.9338 36.847 56 35.7738 56 34.4532V34.3482C56.0001 33.1395 55.137 32.142 53.9475 31.9773ZM30.4466 15.651C29.4239 15.9529 28.3721 16.0068 27.3711 15.8245C30.553 14.1 33.0149 10.6717 33.8121 7.02308C34.3561 6.96835 34.8928 6.83427 35.415 6.6221C36.48 10.4063 34.2703 14.5292 30.4466 15.651ZM26.9506 7.77495C25.6594 10.0185 25.1445 12.5355 25.5072 14.6908C28.6131 13.521 31.1264 10.3229 31.9771 6.91151C30.8251 6.6532 29.767 6.04104 28.967 5.16381C28.198 5.91554 27.509 6.8036 26.9506 7.77495ZM23.5922 13.6306C23.4853 9.99834 25.2153 6.15022 27.9516 3.62462C27.7266 3.1229 27.5744 2.587 27.5019 2.0321C25.6886 2.48851 24.0275 3.68512 22.9975 5.48248C21.5052 8.08701 21.6931 11.3839 23.5922 13.6306ZM29.4602 1.83091C31.0144 1.92518 32.2654 2.43758 33.4496 3.45621C33.924 3.86436 34.3611 4.41841 34.6899 4.9553C33.5729 5.39933 32.3109 5.31548 31.2445 4.69502C30.1783 4.07526 29.4747 3.0202 29.3006 1.82725C29.3513 1.82866 29.4094 1.82866 29.4602 1.83091ZM36.2566 13.1756C33.8356 17.3797 28.567 19.0557 24.3901 16.6325C20.2184 14.2121 19.0179 8.77908 21.4307 4.57402C22.9295 1.9619 25.5641 0.328299 28.2634 0.0504283C29.5649 -0.0835123 30.505 0.0545084 31.6942 0.403289C32.8772 0.75024 34.1354 1.56022 35.009 2.43181V2.43688C35.7271 3.15808 36.3146 4.0104 36.7353 4.96768C36.7498 4.99906 36.7642 5.03043 36.7715 5.06321C37.845 7.56264 37.7435 10.5784 36.2566 13.1756ZM26.051 23.5593L21.8152 33.3291C21.7862 33.3939 21.7644 33.4633 21.7571 33.5332L20.321 41.7272C20.2485 42.1428 20.466 42.5541 20.8577 42.7211L25.0864 44.546C25.4419 44.7545 26.3195 45.3795 25.4347 48.1014L23.955 52.9363C23.8041 53.441 23.0456 53.307 23.0629 52.7846L23.2442 47.3533C23.2587 46.9814 23.0484 46.6394 22.7074 46.4907L19.3853 45.023C18.9502 44.8312 18.4497 45.0084 18.2248 45.4276L11.5881 57.9426C11.3399 58.4127 10.5295 58.1139 10.6597 57.5934L13.6844 45.521C13.6989 45.4576 13.7133 45.3927 13.7133 45.3272L13.8366 41.1791C13.8366 41.1601 13.8366 41.1397 13.8366 41.12C13.7786 39.4 12.8865 37.755 11.1167 36.0948L6.94601 31.9935C6.57316 31.6286 7.02607 31.0139 7.48276 31.2687L12.1322 33.8696C13.4813 34.622 15.0117 34.7547 16.564 34.2538C17.1806 34.0577 17.7681 33.7725 18.3193 33.4285C18.9866 33.1004 19.5813 32.6301 20.0455 32.0563C21.0609 31.0647 21.8661 29.9134 22.3593 28.8627L25.0068 23.0886C25.3244 22.3931 26.3531 22.8827 26.051 23.5593ZM16.0849 25.4456C14.2499 25.4456 12.7629 26.9439 12.7629 28.7851C12.7629 30.6269 14.2498 32.1237 16.0849 32.1237C16.5709 32.1237 17.0351 32.0158 17.4559 31.8234C17.8983 31.5376 18.319 31.1999 18.7035 30.8339C19.1459 30.268 19.407 29.5571 19.407 28.7849C19.407 26.9439 17.9128 25.4456 16.0849 25.4456ZM26.2905 21.0663L26.2687 21.0597C25.1227 20.6732 23.8678 21.2187 23.36 22.3276L21.0317 27.4199C20.4297 25.2369 18.4423 23.6269 16.0849 23.6269C12.0363 23.6269 9.56004 28.1529 11.7837 31.5928L8.36016 29.6788C7.33104 29.1035 6.1113 29.3954 5.39358 30.3904C4.77706 31.3011 4.89309 32.5216 5.68372 33.2939L9.87621 37.4157C11.2761 38.7244 11.9797 39.948 12.0305 41.1561L11.9072 45.173L8.90433 57.1484C8.60691 58.3478 9.29607 59.5495 10.4856 59.8834C10.7519 59.9609 10.929 60 11.2109 60C12.0232 60 12.7848 59.5553 13.191 58.7976L19.4289 47.0265L21.4163 47.9065L21.2495 52.7218C21.2118 53.8387 21.9694 54.798 23.0773 55.0244C24.2233 55.2635 25.3476 54.5943 25.6885 53.4691L27.1538 48.6589C28.2998 45.151 27.1175 43.6125 25.9352 42.9387C25.9062 42.9234 25.8771 42.9089 25.8481 42.895L22.2286 41.3331L23.5197 33.955L27.7122 24.2851C28.2733 22.9956 27.6112 21.508 26.2905 21.0663Z" fill="#927F6B" fill-rule="evenodd"></path></svg>