<svg fill="none" height="59" viewBox="0 0 59 59" width="59" xmlns="http://www.w3.org/2000/svg"><path d="M3.70018 18.0348L8.51974 19.3263C8.98056 19.45 9.45475 19.1762 9.57828 18.7152C9.70181 18.2541 9.42825 17.7803 8.96719 17.6566L4.60938 16.4888V13.6189L25.7549 19.2849V22.1548L12.8967 18.7096C12.4362 18.5858 11.9618 18.8597 11.8381 19.3207C11.7146 19.7818 11.9883 20.2557 12.4493 20.3793L26.0917 24.0347C26.7956 24.2231 27.4834 23.6933 27.4834 22.967V18.8068C27.4834 18.3074 27.1465 17.8682 26.6641 17.739L4.27254 11.7392C3.56985 11.5512 2.88086 12.0794 2.88086 12.8069V16.9671C2.88086 17.4665 3.2178 17.9055 3.70018 18.0348Z" fill="#927F6B"></path><path d="M19.9816 24.9597C20.1052 24.4986 19.8316 24.0248 19.3704 23.9011L11.4417 21.7766C10.9809 21.6528 10.5068 21.9266 10.3832 22.3877C10.2596 22.8487 10.5332 23.3227 10.9944 23.4462L18.9231 25.5708C19.3833 25.6944 19.858 25.4213 19.9816 24.9597Z" fill="#927F6B"></path><path d="M3.70018 35.1735L13.2142 37.7228C13.918 37.9111 14.6058 37.3814 14.6058 36.6551V28.1512C14.6058 27.6518 14.2689 27.2127 13.7865 27.0835L4.27254 24.5341C3.57042 24.3461 2.88086 24.8743 2.88086 25.6019V34.1057C2.88086 34.6052 3.2178 35.0443 3.70018 35.1735ZM4.60938 26.414L12.8774 28.6295V35.8431L4.60938 33.6276V26.414Z" fill="#927F6B"></path><path d="M26.8424 30.5819L19.7796 28.6894C19.3192 28.5657 18.8447 28.8394 18.7211 29.3005C18.5975 29.7615 18.8712 30.2355 19.3323 30.359L26.3951 32.2515C26.8542 32.3749 27.3296 32.103 27.4536 31.6404C27.5771 31.1794 27.3035 30.7054 26.8424 30.5819Z" fill="#927F6B"></path><path d="M16.3986 38.5761L23.4615 40.4686C23.9206 40.592 24.396 40.3201 24.52 39.8575C24.6435 39.3965 24.3699 38.9225 23.9088 38.799L16.846 36.9065C16.3855 36.7826 15.9111 37.0565 15.7874 37.5176C15.664 37.9787 15.9376 38.4527 16.3986 38.5761Z" fill="#927F6B"></path><path d="M16.3986 32.5741L26.3952 35.2526C26.8543 35.3761 27.3298 35.1041 27.4538 34.6415C27.5773 34.1805 27.3036 33.7065 26.8426 33.583L16.846 30.9045C16.3855 30.7807 15.9111 31.0545 15.7874 31.5156C15.664 31.9768 15.9376 32.4507 16.3986 32.5741Z" fill="#927F6B"></path><path d="M16.3986 35.5751L26.3951 38.2537C26.8553 38.3774 27.33 38.1043 27.4537 37.6426C27.5772 37.1816 27.3037 36.7077 26.8426 36.5841L16.846 33.9055C16.3851 33.7817 15.911 34.0555 15.7875 34.5166C15.6639 34.9777 15.9375 35.4516 16.3986 35.5751Z" fill="#927F6B"></path><path d="M26.6635 42.4182L17.1495 39.8689C16.4474 39.6807 15.7578 40.209 15.7578 40.9367V49.4405C15.7578 49.9399 16.0948 50.3791 16.5771 50.5083L26.0911 53.0576C26.7953 53.246 27.4828 52.7159 27.4828 51.9898V43.486C27.4828 42.9866 27.1458 42.5474 26.6635 42.4182ZM25.7543 51.1778L17.4862 48.9623V41.7486L25.7543 43.9641V51.1778Z" fill="#927F6B"></path><path d="M13.9656 39.0157L3.96907 36.3371C3.50813 36.2134 3.03405 36.4871 2.91052 36.9482C2.78699 37.4092 3.06056 37.8831 3.52161 38.0067L13.5182 40.6853C13.9783 40.809 14.4531 40.5359 14.5767 40.0742C14.7003 39.6131 14.4267 39.1392 13.9656 39.0157Z" fill="#927F6B"></path><path d="M10.4391 47.0738L3.96906 45.3402C3.50812 45.2166 3.03416 45.4903 2.91051 45.9513C2.78698 46.4124 3.06067 46.8864 3.52172 47.0099L9.99178 48.7435C10.4519 48.8671 10.9266 48.594 11.0503 48.1324C11.1737 47.6712 10.9002 47.1973 10.4391 47.0738Z" fill="#927F6B"></path><path d="M13.9656 42.0166L3.96906 39.3381C3.50847 39.2143 3.03416 39.4882 2.91051 39.9492C2.78698 40.4103 3.06067 40.8842 3.52172 41.0078L13.5183 43.6863C13.9774 43.8097 14.4529 43.5377 14.5768 43.0752C14.7003 42.614 14.4267 42.1401 13.9656 42.0166Z" fill="#927F6B"></path><path d="M13.9656 45.0177L3.96906 42.3392C3.50847 42.2157 3.03416 42.4893 2.91051 42.9503C2.78698 43.4114 3.06067 43.8853 3.52172 44.0089L13.5183 46.6874C13.9774 46.8108 14.4529 46.5388 14.5768 46.0763C14.7003 45.6151 14.4267 45.1412 13.9656 45.0177Z" fill="#927F6B"></path><path d="M45.7861 24.3447L55.3003 21.7953C55.7828 21.6662 56.1196 21.227 56.1196 20.7276V12.2237C56.1196 11.494 55.4268 10.9675 54.7282 11.156L45.214 13.7053C44.7315 13.8345 44.3945 14.2736 44.3945 14.7731V23.2769C44.3945 24.0031 45.0825 24.5332 45.7861 24.3447ZM46.123 15.2513L54.3911 13.0359V20.2496L46.123 22.4651V15.2513Z" fill="#927F6B"></path><path d="M35.4846 18.1015L42.6004 16.1948C43.0614 16.0714 43.335 15.5973 43.2116 15.1363C43.088 14.6752 42.6137 14.4012 42.153 14.5252L35.0373 16.4318C34.5762 16.5553 34.3027 17.0293 34.4261 17.4904C34.5502 17.9532 35.0259 18.2248 35.4846 18.1015Z" fill="#927F6B"></path><path d="M32.6311 27.8693L39.694 25.9768C40.155 25.8533 40.4286 25.3793 40.3052 24.9182C40.1816 24.4572 39.7073 24.1832 39.2466 24.3071L32.1838 26.1996C31.7227 26.323 31.4492 26.7971 31.5726 27.2582C31.6967 27.7211 32.1724 27.9927 32.6311 27.8693Z" fill="#927F6B"></path><path d="M32.6038 21.8744L42.6004 19.1958C43.0615 19.0722 43.335 18.5983 43.2115 18.1372C43.088 17.6762 42.614 17.4022 42.153 17.5261L32.1564 20.2047C31.6953 20.3283 31.4218 20.8022 31.5453 21.2633C31.6692 21.7254 32.1443 21.9979 32.6038 21.8744Z" fill="#927F6B"></path><path d="M32.6038 24.8754L42.6004 22.1969C43.0614 22.0735 43.335 21.5994 43.2116 21.1384C43.0882 20.6773 42.6137 20.4035 42.153 20.5273L32.1564 23.2058C31.6954 23.3292 31.4218 23.8033 31.5452 24.2644C31.6693 24.7271 32.145 24.9989 32.6038 24.8754Z" fill="#927F6B"></path><path d="M54.7277 35.9546L32.3624 41.9473C31.8799 42.0765 31.543 42.5157 31.543 43.0151V51.9825C31.543 52.714 32.237 53.238 32.9344 53.0503L55.2996 47.0575C55.7821 46.9283 56.119 46.4892 56.119 45.9898V37.0223C56.1191 36.2951 55.4299 35.7664 54.7277 35.9546ZM54.3906 45.5116L33.2715 51.1705V43.4932L54.3906 37.8344V45.5116Z" fill="#927F6B"></path><path d="M35.4847 30.5617L55.4777 25.2046C55.9388 25.0812 56.2123 24.6071 56.0889 24.146C55.9654 23.685 55.4913 23.411 55.0304 23.5349L35.0372 28.8921C34.5763 29.0155 34.3026 29.4896 34.4261 29.9506C34.55 30.4127 35.0251 30.6852 35.4847 30.5617Z" fill="#927F6B"></path><path d="M32.6038 40.3367L45.4812 36.8862C45.9423 36.7628 46.2158 36.2887 46.0924 35.8277C45.9689 35.3666 45.4948 35.0926 45.0339 35.2166L32.1564 38.6671C31.6954 38.7905 31.4218 39.2645 31.5452 39.7256C31.6693 40.1884 32.145 40.46 32.6038 40.3367Z" fill="#927F6B"></path><path d="M32.6038 34.3348L55.4778 28.2057C55.9388 28.0822 56.2125 27.6082 56.0889 27.1472C55.9654 26.6861 55.4917 26.4123 55.0304 26.5361L32.1564 32.6652C31.6954 32.7886 31.4217 33.2627 31.5453 33.7237C31.6692 34.1858 32.1442 34.4583 32.6038 34.3348Z" fill="#927F6B"></path><path d="M32.6038 37.3356L55.4778 31.2065C55.9388 31.083 56.2125 30.609 56.0889 30.148C55.9654 29.6869 55.4917 29.4129 55.0304 29.5369L32.1564 35.666C31.6954 35.7894 31.4217 36.2635 31.5453 36.7245C31.6692 37.1866 32.1442 37.4591 32.6038 37.3356Z" fill="#927F6B"></path><path d="M57.6085 7.5102L52.5394 8.86847V3.48702C52.5394 3.04971 52.3035 2.64328 51.9238 2.42629C51.544 2.20942 51.0741 2.21265 50.6975 2.4347L39.7035 8.91698C39.2924 9.15943 39.1556 9.68928 39.3981 10.1006C39.6405 10.5118 40.1706 10.6486 40.5815 10.406L50.811 4.37444V9.33171L35.4008 13.4609L36.986 12.5262C37.3971 12.2838 37.5339 11.7539 37.2915 11.3427C37.049 10.9316 36.5193 10.795 36.108 11.0372L29.4692 14.9516L7.89067 3.98645C7.07758 3.57299 6.11595 4.16506 6.11595 5.07553V8.77605L1.39111 7.5102C0.690023 7.32179 0 7.85037 0 8.57796V48.0989C0 48.5983 0.33683 49.0373 0.819316 49.1666L28.6378 56.6207C29.2017 56.7719 29.7972 56.7722 30.362 56.6207L58.1808 49.1666C58.665 49.0364 59 48.5968 59 48.0989V8.57796C59 7.85049 58.3106 7.32202 57.6085 7.5102ZM7.84446 5.90176L21.7392 12.9624L7.84446 9.23929V5.90176ZM1.72852 9.39002C4.82555 10.2198 24.1627 15.4012 28.6357 16.5998V38.187C28.6357 38.6644 29.0227 39.0512 29.5 39.0512C29.9773 39.0512 30.3643 38.6644 30.3643 38.187V16.5998C35.0807 15.336 51.9028 10.8287 51.9146 10.8254L57.2715 9.39002V47.6208L30.3643 54.8305V42.2202C30.3643 41.7428 29.9773 41.3559 29.5 41.3559C29.0227 41.3559 28.6357 41.7428 28.6357 42.2202V54.8306L1.72852 47.6208V9.39002Z" fill="#927F6B"></path></svg>