<svg fill="none" height="59" viewBox="0 0 59 59" width="59" xmlns="http://www.w3.org/2000/svg"><path d="M9.21875 14.75H49.7812V18.4375H51.625V4.60938C51.6242 3.87614 51.3325 3.17317 50.8141 2.6547C50.2956 2.13622 49.5926 1.84458 48.8594 1.84375H10.1406C9.40739 1.84458 8.70442 2.13622 8.18595 2.6547C7.66747 3.17317 7.37583 3.87614 7.375 4.60938V17.5156H9.21875V14.75ZM10.1406 3.6875H48.8594C49.1038 3.68778 49.3381 3.785 49.5109 3.95782C49.6838 4.13064 49.781 4.36496 49.7812 4.60938V12.9062H9.21875V4.60938C9.21903 4.36496 9.31625 4.13064 9.48907 3.95782C9.66189 3.785 9.89621 3.68778 10.1406 3.6875Z" fill="#927F6B"></path><path d="M14.75 11.0625C15.297 11.0625 15.8317 10.9003 16.2865 10.5964C16.7413 10.2925 17.0958 9.86059 17.3051 9.35523C17.5144 8.84988 17.5692 8.29381 17.4625 7.75733C17.3558 7.22085 17.0924 6.72806 16.7056 6.34128C16.3188 5.9545 15.826 5.6911 15.2895 5.58439C14.7531 5.47768 14.197 5.53245 13.6916 5.74177C13.1863 5.9511 12.7544 6.30557 12.4505 6.76038C12.1466 7.21518 11.9844 7.74989 11.9844 8.29688C11.9852 9.03011 12.2768 9.73308 12.7953 10.2516C13.3138 10.77 14.0168 11.0617 14.75 11.0625ZM14.75 7.375C14.9323 7.375 15.1106 7.42907 15.2622 7.53037C15.4138 7.63166 15.5319 7.77564 15.6017 7.94409C15.6715 8.11254 15.6897 8.2979 15.6542 8.47672C15.6186 8.65555 15.5308 8.81981 15.4019 8.94874C15.2729 9.07767 15.1087 9.16547 14.9298 9.20104C14.751 9.23661 14.5657 9.21835 14.3972 9.14858C14.2288 9.0788 14.0848 8.96064 13.9835 8.80904C13.8822 8.65744 13.8281 8.47921 13.8281 8.29688C13.8284 8.05247 13.9256 7.81815 14.0984 7.64532C14.2713 7.4725 14.5056 7.37528 14.75 7.375Z" fill="#927F6B"></path><path d="M20.2812 11.0625H35.0312C35.2757 11.0625 35.5102 10.9654 35.6831 10.7925C35.856 10.6196 35.9531 10.3851 35.9531 10.1406V6.45312C35.9531 6.20863 35.856 5.97415 35.6831 5.80126C35.5102 5.62838 35.2757 5.53125 35.0312 5.53125H20.2812C20.0368 5.53125 19.8023 5.62838 19.6294 5.80126C19.4565 5.97415 19.3594 6.20863 19.3594 6.45312V10.1406C19.3594 10.3851 19.4565 10.6196 19.6294 10.7925C19.8023 10.9654 20.0368 11.0625 20.2812 11.0625ZM21.2031 7.375H34.1094V9.21875H21.2031V7.375Z" fill="#927F6B"></path><path d="M41.4844 7.375H37.7969V9.21875H41.4844V7.375Z" fill="#927F6B"></path><path d="M47.0156 7.375H43.3281V9.21875H47.0156V7.375Z" fill="#927F6B"></path><path d="M11.9844 49.7812C11.9855 50.7589 12.3743 51.6962 13.0656 52.3875C13.7569 53.0788 14.6942 53.4676 15.6719 53.4688H19.3594C20.3374 53.4688 21.2753 53.0802 21.9668 52.3887C22.6584 51.6972 23.0469 50.7592 23.0469 49.7812C23.0469 48.8033 22.6584 47.8653 21.9668 47.1738C21.2753 46.4823 20.3374 46.0938 19.3594 46.0938H15.6719C14.6942 46.0949 13.7569 46.4837 13.0656 47.175C12.3743 47.8663 11.9855 48.8036 11.9844 49.7812ZM15.6719 47.9375H19.3594C19.8484 47.9375 20.3173 48.1318 20.6631 48.4775C21.0089 48.8233 21.2031 49.2923 21.2031 49.7812C21.2031 50.2702 21.0089 50.7392 20.6631 51.085C20.3173 51.4307 19.8484 51.625 19.3594 51.625H15.6719C15.1829 51.625 14.7139 51.4307 14.3681 51.085C14.0224 50.7392 13.8281 50.2702 13.8281 49.7812C13.8281 49.2923 14.0224 48.8233 14.3681 48.4775C14.7139 48.1318 15.1829 47.9375 15.6719 47.9375Z" fill="#927F6B"></path><path d="M27.8394 23.2128L27.4728 21.406C26.7756 21.5476 26.0953 21.7625 25.4434 22.0472L26.1814 23.7368C26.714 23.5042 27.2698 23.3286 27.8394 23.2128Z" fill="#927F6B"></path><path d="M8.29688 32.2656C8.54137 32.2656 8.77585 32.1685 8.94874 31.9956C9.12162 31.8227 9.21875 31.5882 9.21875 31.3438C9.22014 30.1217 9.70621 28.9501 10.5703 28.086C11.4345 27.2218 12.6061 26.7358 13.8281 26.7344C14.0726 26.7344 14.3071 26.6372 14.48 26.4644C14.6529 26.2915 14.75 26.057 14.75 25.8125C14.75 25.568 14.6529 25.3335 14.48 25.1606C14.3071 24.9878 14.0726 24.8906 13.8281 24.8906C12.6061 24.8892 11.4345 24.4032 10.5703 23.539C9.70621 22.6749 9.22014 21.5033 9.21875 20.2812C9.21875 20.0368 9.12162 19.8023 8.94874 19.6294C8.77585 19.4565 8.54137 19.3594 8.29688 19.3594C8.05238 19.3594 7.8179 19.4565 7.64501 19.6294C7.47213 19.8023 7.375 20.0368 7.375 20.2812C7.37361 21.5033 6.88754 22.6749 6.02341 23.539C5.15929 24.4032 3.98768 24.8892 2.76562 24.8906C2.52113 24.8906 2.28665 24.9878 2.11376 25.1606C1.94088 25.3335 1.84375 25.568 1.84375 25.8125C1.84375 26.057 1.94088 26.2915 2.11376 26.4644C2.28665 26.6372 2.52113 26.7344 2.76562 26.7344C3.98768 26.7358 5.15929 27.2218 6.02341 28.086C6.88754 28.9501 7.37361 30.1217 7.375 31.3438C7.375 31.5882 7.47213 31.8227 7.64501 31.9956C7.8179 32.1685 8.05238 32.2656 8.29688 32.2656ZM6.08666 25.8125C6.99207 25.2663 7.7507 24.5077 8.29688 23.6023C8.84305 24.5077 9.60169 25.2663 10.5071 25.8125C9.60169 26.3587 8.84305 27.1173 8.29688 28.0227C7.7507 27.1173 6.99207 26.3587 6.08666 25.8125Z" fill="#927F6B"></path><path d="M29.5 35.0312C28.5224 35.0301 27.5851 34.6413 26.8938 33.95C26.2025 33.2587 25.8136 32.3214 25.8125 31.3438C25.8125 31.0993 25.7154 30.8648 25.5425 30.6919C25.3696 30.519 25.1351 30.4219 24.8906 30.4219C24.6461 30.4219 24.4116 30.519 24.2388 30.6919C24.0659 30.8648 23.9688 31.0993 23.9688 31.3438C23.9676 32.3214 23.5788 33.2587 22.8875 33.95C22.1962 34.6413 21.2589 35.0301 20.2812 35.0312C20.0368 35.0312 19.8023 35.1284 19.6294 35.3013C19.4565 35.4741 19.3594 35.7086 19.3594 35.9531C19.3594 36.1976 19.4565 36.4321 19.6294 36.605C19.8023 36.7779 20.0368 36.875 20.2812 36.875C21.2589 36.8761 22.1962 37.265 22.8875 37.9563C23.5788 38.6476 23.9676 39.5849 23.9688 40.5625C23.9688 40.807 24.0659 41.0415 24.2388 41.2144C24.4116 41.3872 24.6461 41.4844 24.8906 41.4844C25.1351 41.4844 25.3696 41.3872 25.5425 41.2144C25.7154 41.0415 25.8125 40.807 25.8125 40.5625C25.8136 39.5849 26.2025 38.6476 26.8938 37.9563C27.5851 37.265 28.5224 36.8761 29.5 36.875C29.7445 36.875 29.979 36.7779 30.1519 36.605C30.3247 36.4321 30.4219 36.1976 30.4219 35.9531C30.4219 35.7086 30.3247 35.4741 30.1519 35.3013C29.979 35.1284 29.7445 35.0312 29.5 35.0312ZM24.8906 37.508C24.4807 36.8917 23.9521 36.3631 23.3358 35.9531C23.9521 35.5432 24.4807 35.0146 24.8906 34.3982C25.3006 35.0146 25.8291 35.5432 26.4454 35.9531C25.8291 36.3631 25.3006 36.8917 24.8906 37.508Z" fill="#927F6B"></path><path d="M56.2344 33.1875H44.1355C44.2117 32.5759 44.2499 31.9601 44.25 31.3438C44.2491 28.3071 43.3108 25.3447 41.5631 22.8613C39.8153 20.3779 37.3435 18.4947 34.4853 17.4689C31.6271 16.443 28.5219 16.3247 25.5939 17.1299C22.6659 17.9352 20.0579 19.6248 18.1262 21.9679C16.1946 24.3111 15.0334 27.1934 14.8014 30.2213C14.5694 33.2491 15.2778 36.2748 16.8299 38.8848C18.3821 41.4949 20.7022 43.5622 23.4733 44.8041C26.2445 46.0461 29.3314 46.4022 32.3126 45.8239C32.4864 47.0343 33.1339 48.1262 34.1126 48.8594C33.6275 49.222 33.2188 49.6767 32.9098 50.1975C32.6008 50.7183 32.3977 51.295 32.312 51.8945C32.2262 52.494 32.2597 53.1045 32.4104 53.691C32.561 54.2775 32.826 54.8286 33.19 55.3125H10.1406C9.89621 55.3122 9.66189 55.215 9.48907 55.0422C9.31625 54.8694 9.21903 54.6351 9.21875 54.3907V34.1094H7.375V54.3907C7.37584 55.1239 7.66749 55.8268 8.18596 56.3453C8.70443 56.8638 9.40739 57.1554 10.1406 57.1563H56.2344C56.4789 57.1563 56.7134 57.0592 56.8862 56.8863C57.0591 56.7134 57.1562 56.4789 57.1562 56.2344V34.1094C57.1562 33.8649 57.0591 33.6304 56.8862 33.4575C56.7134 33.2847 56.4789 33.1875 56.2344 33.1875ZM55.3125 36.875H35.9531V38.7188H55.3125V40.5625H36.875C36.1415 40.5625 35.4381 40.2711 34.9194 39.7525C34.4008 39.2338 34.1094 38.5304 34.1094 37.7969C34.1094 37.0634 34.4008 36.36 34.9194 35.8413C35.4381 35.3227 36.1415 35.0313 36.875 35.0313H55.3125V36.875ZM32.442 43.9122C29.7576 44.5399 26.9428 44.2912 24.41 43.2026C21.8772 42.114 19.7598 40.2427 18.3679 37.8631C16.9761 35.4834 16.3831 32.7205 16.6759 29.9793C16.9687 27.2381 18.1318 24.6627 19.9948 22.6307C21.8578 20.5986 24.3227 19.2168 27.0283 18.6876C29.7338 18.1585 32.5377 18.5099 35.029 19.6904C37.5203 20.8708 39.568 22.8182 40.8719 25.2472C42.1758 27.6761 42.6674 30.4588 42.2746 33.1875H39.472C39.7422 31.7245 39.6871 30.2199 39.3108 28.7805C38.9345 27.3411 38.2462 26.0021 37.2945 24.8584C36.3429 23.7147 35.1514 22.7944 33.8043 22.1628C32.4573 21.5311 30.9878 21.2035 29.5 21.2032V23.0469C30.746 23.0477 31.9759 23.329 33.0984 23.8698C34.2209 24.4107 35.2072 25.1973 35.9843 26.1713C36.7615 27.1453 37.3094 28.2817 37.5875 29.4963C37.8656 30.7108 37.8667 31.9724 37.5908 33.1875H36.875C35.9074 33.1872 34.9642 33.4915 34.1792 34.0573C33.3942 34.6231 32.8072 35.4216 32.5016 36.3397C32.1959 37.2578 32.187 38.2488 32.4762 39.1723C32.7653 40.0957 33.3379 40.9046 34.1126 41.4844C33.3058 42.0898 32.7192 42.9424 32.442 43.9122ZM34.1094 45.1719C34.1102 44.4387 34.4019 43.7357 34.9203 43.2172C35.4388 42.6988 36.1418 42.4071 36.875 42.4063H55.3125V44.25H35.9531V46.0938H55.3125V47.9375H36.875C36.1418 47.9367 35.4388 47.645 34.9203 47.1266C34.4019 46.6081 34.1102 45.9051 34.1094 45.1719ZM37.7969 55.3125H36.875C36.1415 55.3125 35.4381 55.0212 34.9194 54.5025C34.4008 53.9838 34.1094 53.2804 34.1094 52.5469C34.1094 51.8134 34.4008 51.11 34.9194 50.5913C35.4381 50.0727 36.1415 49.7813 36.875 49.7813H55.3125V51.625H35.9531V53.4688H55.3125V55.3125H37.7969Z" fill="#927F6B"></path><path d="M50.7031 20.2812C50.4586 20.2813 50.2241 20.3784 50.0513 20.5513C49.8784 20.7241 49.7813 20.9586 49.7812 21.2031C49.7801 22.1808 49.3913 23.1181 48.7 23.8094C48.0087 24.5007 47.0714 24.8895 46.0938 24.8906C45.8493 24.8906 45.6148 24.9878 45.4419 25.1606C45.269 25.3335 45.1719 25.568 45.1719 25.8125C45.1719 26.057 45.269 26.2915 45.4419 26.4644C45.6148 26.6372 45.8493 26.7344 46.0938 26.7344C47.0714 26.7355 48.0087 27.1243 48.7 27.8156C49.3913 28.5069 49.7801 29.4442 49.7812 30.4219C49.7812 30.6664 49.8784 30.9009 50.0513 31.0737C50.2241 31.2466 50.4586 31.3438 50.7031 31.3438C50.9476 31.3438 51.1821 31.2466 51.355 31.0737C51.5279 30.9009 51.625 30.6664 51.625 30.4219C51.6261 29.4442 52.015 28.5069 52.7063 27.8156C53.3976 27.1243 54.3349 26.7355 55.3125 26.7344C55.557 26.7344 55.7915 26.6372 55.9644 26.4644C56.1372 26.2915 56.2344 26.057 56.2344 25.8125C56.2344 25.568 56.1372 25.3335 55.9644 25.1606C55.7915 24.9878 55.557 24.8906 55.3125 24.8906C54.3349 24.8895 53.3976 24.5007 52.7063 23.8094C52.015 23.1181 51.6261 22.1808 51.625 21.2031C51.625 20.9586 51.5279 20.7241 51.355 20.5513C51.1821 20.3784 50.9476 20.2813 50.7031 20.2812ZM50.7031 27.3674C50.2932 26.751 49.7646 26.2225 49.1483 25.8125C49.7646 25.4025 50.2932 24.874 50.7031 24.2576C51.1131 24.874 51.6416 25.4025 52.2579 25.8125C51.6416 26.2225 51.1131 26.751 50.7031 27.3674Z" fill="#927F6B"></path></svg>