<svg fill="none" height="59" viewBox="0 0 59 59" width="59" xmlns="http://www.w3.org/2000/svg"><g clip-path="url(#clip0_190_201)"><path d="M58.084 19.6141C59.4771 21.3438 59.2743 24.0449 57.5262 25.4888C55.9222 26.8128 53.6924 26.5201 52.4213 24.9403C46.6089 17.7174 38.2878 13.5747 29.5911 13.5747H29.4597C20.7111 13.6162 12.3809 17.8372 6.603 25.1558C5.33658 26.761 3.10449 27.0491 1.50734 25.755C-0.271881 24.3134 -0.474693 21.6123 0.891986 19.8826C7.88441 11.0292 18.0942 5.5129 29.4217 5.45874H29.5865C35.0705 5.45874 40.3678 6.72401 45.3321 9.21769C45.7585 9.43202 45.9302 9.95173 45.7159 10.3781C45.5016 10.8045 44.9831 10.9762 44.5566 10.7618C39.8354 8.3903 34.7985 7.18726 29.5865 7.18726H29.4286C19.0264 7.23681 9.11857 12.2541 2.24829 20.9543C1.42552 21.9949 1.6099 23.6128 2.59285 24.409C3.44558 25.1004 4.57718 24.9322 5.24669 24.0852C11.3518 16.3507 20.1742 11.89 29.4505 11.8462H29.5911C38.8133 11.8462 47.6253 16.2239 53.7684 23.8571C54.4473 24.7006 55.5822 24.8527 56.4223 24.159C57.4075 23.3454 57.5654 21.7264 56.738 20.6985C54.1983 17.5434 51.2471 14.8607 47.9664 12.7231C47.5665 12.4627 47.4536 11.9268 47.714 11.527C47.9746 11.1271 48.5103 11.0142 48.9103 11.2746C52.3441 13.5113 55.4301 16.3173 58.084 19.6141Z" fill="#927F6B"></path><path d="M48.6252 27.1573C50.1636 28.9088 49.9504 31.7161 48.185 33.1737C46.657 34.4355 44.4963 34.2373 43.1551 32.7139C39.5391 28.6081 34.7165 26.3496 29.5667 26.3496C29.539 26.3496 29.5114 26.3496 29.4837 26.3496C24.3028 26.3738 19.4687 28.6796 15.8722 32.8419C14.5459 34.3768 12.3864 34.5969 10.8492 33.3512L10.8469 33.3489C9.0665 31.9061 8.83027 29.1014 10.3502 27.3372C15.1993 21.708 21.9866 18.2694 29.4457 18.2336C36.9531 18.2001 43.7565 21.6099 48.6252 27.1573ZM47.0822 31.8427C48.102 31.0002 48.2207 29.3156 47.3265 28.2969C42.6065 22.919 36.3008 19.962 29.562 19.962C29.5263 19.962 29.4905 19.962 29.4548 19.962C22.6744 19.9943 16.355 23.0134 11.6603 28.464C11.2316 28.9618 11.0219 29.6452 11.0841 30.339C11.1441 31.0085 11.454 31.6158 11.9346 32.0053C11.9346 32.0053 11.9346 32.0065 11.9357 32.0065L11.9369 32.0076C12.7458 32.6623 13.8509 32.5388 14.5642 31.7116C18.4926 27.1656 23.7876 24.6477 29.4755 24.6212H29.5667C35.2201 24.6212 40.5036 27.0872 44.4527 31.5721C45.1739 32.3912 46.2802 32.5053 47.0822 31.8427Z" fill="#927F6B"></path><path d="M38.8465 34.5947C39.7153 35.3575 40.2143 36.4937 40.2143 37.7106C40.2143 38.9908 39.676 40.1697 38.738 40.9441C37.3207 42.1148 35.4033 42.002 34.0826 40.8601C33.3047 40.1871 32.4325 39.6997 31.4886 39.4139C31.0312 39.2744 30.773 38.7916 30.9125 38.3353C31.0508 37.8789 31.5337 37.6208 31.99 37.7591C33.1666 38.1163 34.2521 38.7202 35.2131 39.5523C35.9253 40.1676 36.899 40.2218 37.6377 39.6122C38.7474 38.6949 38.7693 36.827 37.7057 35.8936C35.3526 33.8285 32.5259 32.7372 29.5332 32.7372H29.4779C26.4622 32.751 23.6275 33.8699 21.2767 35.9708C20.205 36.9284 20.2834 38.7998 21.3804 39.6882C22.1191 40.2862 23.0928 40.2332 23.8026 39.6064C24.8927 38.6454 26.1891 37.9619 27.5524 37.6325C28.0156 37.5195 28.4834 37.8053 28.5952 38.2686C28.7082 38.733 28.4224 39.1997 27.9591 39.3127C26.869 39.5766 25.8261 40.1262 24.9457 40.9029C23.6229 42.0703 21.7065 42.1774 20.2926 41.0307C18.3371 39.4475 18.2875 36.3258 20.1243 34.6825C22.7563 32.3294 26.075 31.025 29.4687 31.0088H29.5332C32.9027 31.0086 36.2111 32.2818 38.8465 34.5947Z" fill="#927F6B"></path><path d="M29.4997 44.5784C31.9634 44.5784 33.9662 46.5892 33.9662 49.0599C33.9662 51.5317 31.9634 53.5414 29.4997 53.5414C27.0371 53.5414 25.0332 51.5318 25.0332 49.0599C25.0332 46.5893 27.0371 44.5784 29.4997 44.5784ZM32.2377 49.0599C32.2377 47.5423 31.0093 46.3069 29.4997 46.3069C27.9901 46.3069 26.7617 47.5423 26.7617 49.0599C26.7617 50.5787 27.9901 51.8129 29.4997 51.8129C31.0093 51.8129 32.2377 50.5787 32.2377 49.0599Z" fill="#927F6B"></path></g><defs><clipPath id="clip0_190_201"><rect fill="white" height="59" width="59"></rect></clipPath></defs></svg>