<svg fill="none" height="59" viewBox="0 0 59 59" width="59" xmlns="http://www.w3.org/2000/svg"><path d="M29.8622 36.9761C29.5315 36.9761 29.2005 36.9599 28.871 36.9274C27.509 36.7929 26.2098 36.3819 25.1136 35.7388C21.8524 33.8258 15.0848 29.8055 11.3406 27.5794C10.3055 26.9638 9.45088 26.1561 8.86973 25.243C8.27088 24.3023 7.95788 23.2471 7.96496 22.191L7.96555 22.0883V21.3594C7.96555 20.0345 8.5231 18.7283 9.53554 17.681C10.5179 16.665 11.8604 15.9328 13.418 15.5632C18.0616 14.4614 24.236 12.9775 27.2801 12.1645C28.2194 11.9138 29.2365 11.832 30.2215 11.9285C31.2121 12.0256 32.1765 12.3032 33.0108 12.7312C37.9901 15.2871 46.7085 19.7767 49.1558 21.131C50.3116 21.7706 51.0444 23.2928 50.8978 24.7504C50.8146 25.5776 50.4588 26.354 49.8688 26.9956C49.8556 27.0101 49.8423 27.0243 49.8287 27.0387C49.9821 27.2151 50.111 27.4128 50.2122 27.629C50.4627 28.1644 50.5237 28.7922 50.3842 29.3972C50.127 30.5103 49.6166 31.0953 48.5637 31.4838C48.5517 31.4882 48.5396 31.4923 48.5275 31.4962L32.8718 36.5138C31.916 36.8194 30.8915 36.9761 29.8622 36.9761ZM29.4023 13.659C28.8409 13.659 28.2772 13.7301 27.7362 13.8743C24.6723 14.6927 18.4805 16.1806 13.826 17.2851C11.4171 17.8565 9.73496 19.5318 9.73496 21.3591V22.0904V22.096L9.73437 22.2022C9.72464 23.6978 10.6397 25.1032 12.2448 26.0578C15.9872 28.283 22.7515 32.3012 26.0086 34.2119C27.8052 35.2657 30.2277 35.5017 32.3311 34.8276L47.9676 29.8161C48.4345 29.6418 48.5393 29.5152 48.6587 28.9981C48.6933 28.8482 48.7593 28.3939 48.3859 28.0992C48.0106 28.293 47.597 28.4615 47.1463 28.6034C47.1454 28.6037 47.1442 28.604 47.1433 28.6043C47.01 28.6459 33.7884 32.7605 31.0505 33.6963C30.3392 33.9393 29.8079 33.8264 29.4876 33.6889C29.0501 33.5013 28.702 33.1402 28.5073 32.6726C28.2804 32.1281 28.2672 31.4634 28.471 30.8492C28.6946 30.1751 29.1477 29.6406 29.7472 29.3435C29.784 29.3253 29.8221 29.3096 29.8613 29.2966L44.8562 24.3197C45.3199 24.1657 45.8208 24.417 45.9748 24.8808C46.1288 25.3448 45.8775 25.8454 45.4137 25.9994L30.4903 30.9525C30.1301 31.1675 30.0274 31.7192 30.1413 31.9918C30.1611 32.0393 30.1805 32.0599 30.1855 32.062C30.2068 32.0711 30.3009 32.0814 30.4782 32.021C33.2358 31.0784 46.0412 27.0933 46.6156 26.9145C48.1375 26.4351 49.0325 25.6032 49.1363 24.5725C49.2204 23.7359 48.7667 22.9382 48.2982 22.6789C45.7813 21.2862 36.2032 16.3588 32.2019 14.305C31.3709 13.8791 30.3909 13.659 29.4023 13.659Z" fill="#927F6B"></path><path d="M30.3604 43.9741C30.0433 43.9741 29.7899 43.9033 29.6058 43.8242C29.1683 43.6366 28.8202 43.2755 28.6255 42.8079C28.3986 42.2634 28.3854 41.5987 28.5892 40.9845C28.8128 40.3105 29.2659 39.7759 29.8654 39.4789C29.9023 39.4606 29.9403 39.4449 29.9796 39.432L44.9744 34.455C45.4384 34.301 45.9391 34.5524 46.093 35.0161C46.247 35.4798 45.9957 35.9808 45.532 36.1347L30.6085 41.0878C30.2483 41.3029 30.1456 41.8545 30.2595 42.1271C30.2793 42.1746 30.2987 42.1952 30.3038 42.1973C30.325 42.2064 30.4191 42.2168 30.5964 42.1563C33.3546 41.2135 46.1674 37.226 46.7344 37.0495C48.256 36.5699 49.151 35.7383 49.2546 34.7075C49.3386 33.8709 48.8849 33.0732 48.4165 32.8139C48.0105 32.5894 47.3975 32.2599 46.5942 31.8348C46.1624 31.6062 45.9975 31.0705 46.2261 30.6386C46.4547 30.2067 46.9904 30.0418 47.4223 30.2704C48.2353 30.7008 48.8581 31.0354 49.2734 31.2652C50.4292 31.9047 51.162 33.4269 51.0154 34.8845C50.9322 35.7117 50.5765 36.4882 49.9865 37.1298C49.3413 37.8313 48.4256 38.3726 47.2645 38.7381C47.2636 38.7384 47.2624 38.7387 47.2615 38.739C47.1282 38.7806 33.9066 42.8953 31.1687 43.831C30.866 43.9351 30.5955 43.9741 30.3604 43.9741Z" fill="#927F6B"></path><path d="M29.9797 47.1111C29.649 47.1111 29.318 47.0949 28.9885 47.0625C27.6265 46.9279 26.327 46.517 25.2308 45.8739C21.971 43.9617 15.2026 39.9409 11.4578 37.7145C10.4227 37.0988 9.56806 36.2911 8.98691 35.3781C8.38806 34.4373 8.07507 33.3821 8.08215 32.326L8.08274 32.2225V31.4944C8.08274 29.5061 9.312 27.6464 11.3717 26.5198C11.8006 26.2853 12.3384 26.4428 12.5729 26.8715C12.8075 27.3004 12.6499 27.8382 12.2213 28.0727C10.7383 28.884 9.85303 30.1631 9.85303 31.4941V32.2254V32.2319L9.85244 32.3375C9.84271 33.8332 10.7578 35.2386 12.3629 36.1932C16.1059 38.4187 22.8708 42.4372 26.1267 44.3473C27.9233 45.401 30.3458 45.637 32.4491 44.9629L48.0859 39.9515C48.5529 39.7771 48.6576 39.6506 48.7771 39.1334C48.8175 38.9582 48.901 38.3656 48.2727 38.1004C47.8222 37.9104 47.6113 37.3912 47.8012 36.941C47.9912 36.4908 48.5104 36.2796 48.9606 36.4696C49.583 36.7321 50.0565 37.1797 50.3297 37.7638C50.5801 38.2992 50.6412 38.9269 50.5017 39.532C50.2444 40.645 49.7341 41.23 48.6812 41.6185C48.6691 41.623 48.6573 41.6271 48.6449 41.6309L32.9893 46.6486C32.0335 46.9548 31.0087 47.1111 29.9797 47.1111Z" fill="#927F6B"></path></svg>