<svg fill="none" height="59" viewBox="0 0 59 59" width="59" xmlns="http://www.w3.org/2000/svg"><g clip-path="url(#clip0_190_211)"><path d="M37.3667 37.466V28.5167C37.3667 26.8902 36.0431 25.5667 34.4167 25.5667H6.88333C5.2569 25.5667 3.93333 26.8902 3.93333 28.5167V37.466C1.69232 37.9232 0 39.9095 0 42.2833V48.1833V58.0166C0 58.5594 0.440533 59 0.983333 59H4.91667C5.45947 59 5.9 58.5594 5.9 58.0166V55.0666H35.4V58.0166C35.4 58.5594 35.8405 59 36.3833 59H40.3167C40.8595 59 41.3 58.5594 41.3 58.0166V48.1833V42.2833C41.3 39.9095 39.6077 37.9232 37.3667 37.466ZM5.9 28.5167C5.9 27.9748 6.34152 27.5333 6.88333 27.5333H34.4167C34.9585 27.5333 35.4 27.9748 35.4 28.5167V37.3666H33.4333V33.4333C33.4333 31.8069 32.1098 30.4833 30.4833 30.4833H24.5833C22.9569 30.4833 21.6333 31.8069 21.6333 33.4333V37.3666H19.6667V33.4333C19.6667 31.8069 18.3431 30.4833 16.7167 30.4833H10.8167C9.19023 30.4833 7.86667 31.8069 7.86667 33.4333V37.3666H5.9V28.5167ZM31.4667 33.4333V37.3666H23.6V33.4333C23.6 32.8915 24.0415 32.45 24.5833 32.45H30.4833C31.0252 32.45 31.4667 32.8915 31.4667 33.4333ZM17.7 33.4333V37.3666H9.83333V33.4333C9.83333 32.8915 10.2749 32.45 10.8167 32.45H16.7167C17.2585 32.45 17.7 32.8915 17.7 33.4333ZM39.3333 57.0333H37.3667V54.0833C37.3667 53.5405 36.9261 53.1 36.3833 53.1H4.91667C4.37387 53.1 3.93333 53.5405 3.93333 54.0833V57.0333H1.96667V49.1666H39.3333V57.0333ZM39.3333 47.2H1.96667V42.2833C1.96667 40.6569 3.29023 39.3333 4.91667 39.3333H8.85H18.6833H22.6167H32.45H36.3833C38.0098 39.3333 39.3333 40.6569 39.3333 42.2833V47.2Z" fill="#927F6B"></path><path d="M58.0176 37.3667H44.2509C43.7081 37.3667 43.2676 37.8072 43.2676 38.35V46.2167V53.1H45.2342V47.2H57.0342V53.1H59.0009V46.2167V38.35C59.0009 37.8072 58.5604 37.3667 58.0176 37.3667ZM57.0342 45.2334H45.2342V39.3334H57.0342V45.2334Z" fill="#927F6B"></path><path d="M53.0993 41.3H49.166V43.2667H53.0993V41.3Z" fill="#927F6B"></path><path d="M56.0003 29.1883L54.0337 23.2883C53.8989 22.8871 53.5243 22.6167 53.1005 22.6167H49.1671C48.7433 22.6167 48.3687 22.8871 48.234 23.2893L46.2673 29.1893C46.167 29.4892 46.2181 29.8186 46.403 30.0753C46.5879 30.3319 46.8848 30.4834 47.2005 30.4834H50.1505V33.4334H48.1838V35.4H54.0838V33.4334H52.1171V30.4834H55.0671C55.3828 30.4834 55.6798 30.3319 55.8646 30.0743C56.0495 29.8176 56.0996 29.4882 56.0003 29.1883ZM48.5644 28.5167L49.8761 24.5834H52.3925L53.7033 28.5167H48.5644Z" fill="#927F6B"></path><path d="M58.4189 12.8689L29.9022 0.08555C29.6455 -0.0285167 29.3535 -0.0285167 29.0978 0.08555L0.58115 12.8689C0.22715 13.0282 0 13.3792 0 13.7667V25.5667H1.96667V14.4029L29.5 2.06107L57.0333 14.4039V25.5667H59V13.7667C59 13.3792 58.7729 13.0282 58.4189 12.8689Z" fill="#927F6B"></path><path d="M36.2885 13.6035L34.3484 13.9299C34.3946 14.1984 34.4172 14.4737 34.4172 14.75C34.4172 17.4611 32.2116 19.6667 29.5005 19.6667C26.7895 19.6667 24.5839 17.4611 24.5839 14.75C24.5839 12.039 26.7895 9.83337 29.5005 9.83337C30.063 9.83337 30.6156 9.92777 31.1407 10.1136L31.7956 8.25905C31.0591 7.99847 30.2872 7.8667 29.5005 7.8667C25.7049 7.8667 22.6172 10.9544 22.6172 14.75C22.6172 18.5457 25.7049 21.6334 29.5005 21.6334C33.2962 21.6334 36.3839 18.5457 36.3839 14.75C36.3839 14.3646 36.3514 13.9791 36.2885 13.6035Z" fill="#927F6B"></path><path d="M35.6879 8.15479L29.4998 14.3429L28.2283 13.0715L26.8379 14.4619L28.8046 16.4286C28.9963 16.6203 29.248 16.7167 29.4998 16.7167C29.7515 16.7167 30.0032 16.6203 30.195 16.4286L37.0783 9.54522L35.6879 8.15479Z" fill="#927F6B"></path></g><defs><clipPath id="clip0_190_211"><rect fill="white" height="59" width="59"></rect></clipPath></defs></svg>