<svg fill="none" height="59" viewBox="0 0 60 59" width="60" xmlns="http://www.w3.org/2000/svg"><path d="M56.1005 53.9498C55.5093 54.5313 54.7232 54.8515 53.887 54.8515C53.0509 54.8515 52.2648 54.5314 51.6736 53.9498C49.6012 51.9119 46.2291 51.9121 44.1567 53.9498C43.5655 54.5313 42.7794 54.8515 41.9432 54.8515C41.1071 54.8515 40.321 54.5314 39.7297 53.9498C37.6573 51.9119 34.2853 51.912 32.2129 53.9498C31.6215 54.5314 30.8354 54.8515 29.9993 54.8515C29.1632 54.8515 28.377 54.5314 27.7857 53.9498C25.7134 51.9119 22.3413 51.9119 20.2688 53.9498C19.6776 54.5313 18.8915 54.8515 18.0554 54.8515C17.2192 54.8515 16.4331 54.5314 15.8419 53.9498C13.7696 51.9119 10.3975 51.9121 8.32504 53.9498C7.73382 54.5314 6.94771 54.8515 6.11157 54.8515C5.27543 54.8515 4.48932 54.5314 3.8981 53.9498C3.47161 53.5305 2.77989 53.5304 2.35319 53.9498C1.9266 54.3693 1.92649 55.0494 2.35319 55.4691C3.35713 56.4562 4.69185 56.9999 6.11157 56.9999C7.53128 56.9999 8.86601 56.4562 9.86995 55.4691C11.0906 54.2689 13.0765 54.2689 14.297 55.4691C15.3009 56.4562 16.6357 56.9999 18.0554 56.9999C19.4752 56.9999 20.8099 56.4562 21.8139 55.4691C23.0343 54.2689 25.0202 54.2687 26.2408 55.4691C27.2447 56.4562 28.5796 56.9999 29.9993 56.9999C31.419 56.9999 32.7538 56.4562 33.7578 55.4691C34.9782 54.2689 36.9642 54.2687 38.1847 55.4691C39.1887 56.4562 40.5234 56.9999 41.9432 56.9999C43.3629 56.9999 44.6977 56.4562 45.7016 55.4691C46.9223 54.2689 48.9082 54.2689 50.1287 55.4691C51.1326 56.4562 52.4673 56.9999 53.887 56.9999C55.3069 56.9999 56.6416 56.4562 57.6455 55.4691C58.0721 55.0495 58.0721 54.3694 57.6455 53.9498C57.2188 53.5304 56.5271 53.5304 56.1005 53.9498Z" fill="#927F6B"></path><path d="M56.1005 45.2967C55.5092 45.8781 54.7231 46.1984 53.887 46.1984C53.0508 46.1984 52.2647 45.8782 51.6735 45.2967C49.6011 43.2588 46.2292 43.2588 44.1567 45.2967C43.5654 45.8781 42.7793 46.1984 41.9432 46.1984C41.107 46.1984 40.3209 45.8782 39.7297 45.2967C37.6573 43.2589 34.2853 43.2588 32.2128 45.2967C30.9923 46.497 29.0064 46.497 27.7858 45.2967C25.7136 43.2588 22.3414 43.2589 20.2689 45.2967C19.6777 45.8781 18.8916 46.1984 18.0554 46.1984C17.2193 46.1984 16.4332 45.8782 15.842 45.2967C13.7695 43.2588 10.3977 43.2588 8.32511 45.2967C7.73389 45.8781 6.94778 46.1984 6.11164 46.1984C5.27549 46.1984 4.48938 45.8782 3.89816 45.2967C3.47157 44.8774 2.77985 44.8774 2.35315 45.2967C1.92656 45.7162 1.92656 46.3964 2.35315 46.816C4.4257 48.8539 7.79768 48.854 9.87001 46.816C11.0907 45.6158 13.0766 45.6158 14.2971 46.816C16.3694 48.854 19.7415 48.8539 21.8139 46.816C23.0344 45.6157 25.0204 45.6158 26.2409 46.816C28.3133 48.8539 31.6852 48.8539 33.7577 46.816C34.9781 45.6158 36.9642 45.6156 38.1847 46.816C39.2211 47.835 40.5818 48.3445 41.9432 48.3444C43.3041 48.3443 44.6655 47.8349 45.7016 46.816C46.9222 45.6158 48.9082 45.6158 50.1286 46.816C52.2009 48.854 55.573 48.8539 57.6455 46.816C58.0721 46.3965 58.0721 45.7163 57.6455 45.2967C57.2188 44.8773 56.5271 44.8773 56.1005 45.2967Z" fill="#927F6B"></path><path d="M3.12571 13.1719H20.7501V36.2257C20.5835 36.3541 20.4223 36.4924 20.2689 36.6432C19.6777 37.2246 18.8916 37.5449 18.0554 37.5449C17.2193 37.5449 16.4332 37.2247 15.842 36.6432C13.7695 34.6053 10.3977 34.6053 8.32511 36.6432C7.73389 37.2246 6.94778 37.5449 6.11164 37.5449C5.27549 37.5449 4.48938 37.2247 3.89816 36.6432C3.47157 36.2238 2.77985 36.2238 2.35315 36.6432C1.92656 37.0627 1.92656 37.7429 2.35315 38.1625C4.4257 40.2003 7.79768 40.2005 9.87001 38.1625C11.0907 36.9622 13.0766 36.9622 14.2971 38.1625C16.3694 40.2005 19.7415 40.2004 21.8139 38.1625C23.0344 36.9621 25.0204 36.9622 26.2409 38.1625C28.3133 40.2004 31.6852 40.2004 33.7577 38.1625C34.9781 36.9622 36.9642 36.962 38.1847 38.1625C39.2211 39.1815 40.5818 39.691 41.9432 39.6909C43.3041 39.6908 44.6655 39.1814 45.7016 38.1625C46.9222 36.9622 48.9082 36.9622 50.1286 38.1625C52.2009 40.2005 55.573 40.2004 57.6455 38.1625C58.0721 37.743 58.0721 37.0628 57.6455 36.6432C57.2189 36.2238 56.5272 36.2238 56.1005 36.6432C55.5092 37.2246 54.7231 37.5449 53.887 37.5449C53.0508 37.5449 52.2647 37.2247 51.6735 36.6432C51.5201 36.4924 51.3589 36.3541 51.1924 36.2257V13.1719H56.873C57.4764 13.1719 57.9654 12.6908 57.9654 12.0976C57.9654 11.5045 57.4764 11.0234 56.873 11.0234H51.1343C50.5871 5.95871 46.2169 2 40.9236 2C35.6304 2 31.2601 5.95871 30.7129 11.0234H27.2466C26.6994 5.95871 22.3291 2 17.0359 2C11.7426 2 7.37251 5.95871 6.82532 11.0234H3.12571C2.52236 11.0234 2.03329 11.5045 2.03329 12.0976C2.03329 12.6908 2.52236 13.1719 3.12571 13.1719ZM13.4858 11.0234C13.9535 9.53209 15.368 8.44531 17.0359 8.44531C18.7038 8.44531 20.1184 9.53209 20.5859 11.0234H13.4858ZM44.6379 13.1719V16.1797H27.3047V13.1719H44.6379ZM44.6379 20.4765H27.3047V18.3281H44.6379V20.4765ZM27.3047 22.625H44.6379V25.6328H27.3047V22.625ZM37.3736 11.0234C37.8412 9.53209 39.2557 8.44531 40.9236 8.44531C42.5915 8.44531 44.0061 9.53209 44.4737 11.0234H37.3736ZM41.9432 37.5449C41.107 37.5449 40.3209 37.2247 39.7297 36.6432C37.6573 34.6054 34.2853 34.6053 32.2128 36.6432C30.9923 37.8434 29.0064 37.8434 27.7858 36.6432C27.6324 36.4924 27.4713 36.3541 27.3047 36.2257V32.0781H31.0553C31.6587 32.0781 32.1477 31.5971 32.1477 31.0039C32.1477 30.4107 31.6587 29.9297 31.0553 29.9297H27.3047V27.7812H44.6379V29.9297H40.8872C40.2839 29.9297 39.7948 30.4107 39.7948 31.0039C39.7948 31.5971 40.2839 32.0781 40.8872 32.0781H44.6379V36.2257C44.4713 36.3541 44.31 36.4924 44.1567 36.6432C43.5654 37.2246 42.7793 37.5449 41.9432 37.5449ZM40.9236 4.14844C45.3812 4.14844 49.0076 7.71441 49.0076 12.0976V35.2268C48.2875 35.0793 47.5427 35.0793 46.8227 35.2268V12.0976C46.8227 8.89916 44.1764 6.29687 40.9236 6.29687C38.0442 6.29687 35.6415 8.3366 35.1275 11.0234H32.9155C33.4508 7.14669 36.8367 4.14844 40.9236 4.14844ZM17.0359 4.14844C21.4934 4.14844 25.1198 7.71441 25.1198 12.0976V35.2267C24.3998 35.0791 23.655 35.0791 22.935 35.2267V12.0976C22.935 8.89916 20.2887 6.29687 17.0359 6.29687C14.1565 6.29687 11.7538 8.3366 11.2398 11.0234H9.02786C9.56304 7.14669 12.9491 4.14844 17.0359 4.14844Z" fill="#927F6B"></path><path d="M35.9713 29.9297C35.6829 29.9297 35.4022 30.0445 35.1979 30.2444C34.9947 30.4442 34.8789 30.7214 34.8789 31.0039C34.8789 31.2864 34.9947 31.5636 35.1979 31.7633C35.4022 31.9631 35.6829 32.0781 35.9713 32.0781C36.2586 32.0781 36.5405 31.9632 36.7437 31.7633C36.9469 31.5636 37.0638 31.2864 37.0638 31.0039C37.0638 30.7214 36.9469 30.4442 36.7437 30.2444C36.5405 30.0446 36.2586 29.9297 35.9713 29.9297Z" fill="#927F6B"></path></svg>