<svg fill="none" height="60" viewBox="0 0 60 60" width="60" xmlns="http://www.w3.org/2000/svg"><g clip-path="url(#clip0_1032_5)"><path d="M51.6053 15.8703C49.6581 14.9636 47.5883 14.5 45.4546 14.5C39.8086 14.5 34.6264 17.7969 32.2464 22.9071C29.5368 28.7075 30.9287 35.5382 35.6062 39.8139L30.8154 50.0754C30.5681 50.5906 30.7937 51.1984 31.3089 51.4457L37.3463 54.2584C37.4905 54.3305 37.6348 54.3614 37.7893 54.3614C37.9026 54.3614 38.0263 54.3408 38.1406 54.2996C38.3982 54.2068 38.6032 54.0111 38.7176 53.7638L43.5084 43.5023C44.1471 43.5847 44.7849 43.6259 45.4237 43.6259C51.0696 43.6259 56.2529 40.329 58.6318 35.2292C62.0317 27.9554 58.8791 19.2702 51.6053 15.8703ZM45.4237 41.5654C44.6509 41.5654 43.8679 41.4932 43.1055 41.349C42.6316 41.2563 42.1793 41.5035 41.9722 41.926L37.2845 51.9608L33.1108 50.0136L37.7996 39.9787C38.0046 39.546 37.882 39.0412 37.5204 38.7424C35.3568 36.9806 33.9247 34.611 33.2963 32.0456L50.9233 40.2775C49.2357 41.112 47.3606 41.5654 45.4237 41.5654ZM56.767 34.3637C55.9005 36.2182 54.6024 37.7945 53.0261 38.9897C52.9962 38.9691 52.955 38.9588 52.923 38.9382L33.0696 29.6554C33.0387 29.6348 32.9975 29.6245 32.9563 29.6142C32.8636 27.6463 33.2345 25.6476 34.1102 23.7725C36.1491 19.3938 40.6112 16.5606 45.4535 16.5606C47.2874 16.5606 49.0595 16.9624 50.7285 17.7351C56.973 20.6611 59.6827 28.11 56.767 34.3637Z" fill="#897662"></path><path d="M29.1864 50.0754L24.3956 39.8139C29.073 35.5382 30.4649 28.7075 27.7553 22.9071C25.3743 17.7969 20.1931 14.5 14.5472 14.5C12.4145 14.5 10.3436 14.9636 8.39643 15.8703C1.12165 19.2702 -2.031 27.9554 1.36891 35.2292C3.74885 40.329 8.93114 43.6259 14.5771 43.6259C15.2158 43.6259 15.8536 43.5847 16.4923 43.5023L21.2831 53.7638C21.3965 54.0111 21.6025 54.2068 21.8601 54.2996C21.9734 54.3408 22.097 54.3614 22.2114 54.3614C22.3649 54.3614 22.5102 54.3305 22.6544 54.2584L28.6918 51.4457C29.207 51.1984 29.4336 50.5906 29.1864 50.0754ZM3.23371 34.3637C0.318031 28.11 3.02766 20.6611 9.27113 17.7351C10.9402 16.9624 12.7123 16.5606 14.5461 16.5606C19.3884 16.5606 23.8495 19.3938 25.8895 23.7725C26.7663 25.6476 27.1361 27.6463 27.0434 29.6142C27.0022 29.6245 26.961 29.6348 26.9301 29.6554L7.07664 38.9382C7.04573 38.9588 7.00452 38.9691 6.97361 38.9897C5.39729 37.7945 4.09914 36.2182 3.23371 34.3637ZM22.7162 51.9608L18.0285 41.926C17.8533 41.5551 17.4824 41.3284 17.0909 41.3284C17.0291 41.3284 16.9673 41.3387 16.8962 41.349C16.1338 41.4932 15.3508 41.5654 14.5781 41.5654C12.6412 41.5654 10.7661 41.112 9.07641 40.2775L26.7034 32.0456C26.076 34.611 24.6429 36.9806 22.4793 38.7424C22.1176 39.0412 21.995 39.546 22.2001 39.9787L26.8889 50.0136L22.7162 51.9608Z" fill="#897662"></path><path d="M29.9986 17.0452C26.8522 17.0452 24.293 14.486 24.293 11.3385C24.293 8.19202 26.8522 5.63281 29.9986 5.63281C33.1451 5.63281 35.7043 8.19202 35.7043 11.3385C35.7043 14.4849 33.1451 17.0452 29.9986 17.0452ZM29.9986 7.69336C27.9886 7.69336 26.3535 9.32841 26.3535 11.3385C26.3535 13.3485 27.9886 14.9846 29.9986 14.9846C32.0087 14.9846 33.6438 13.3496 33.6438 11.3385C33.6438 9.32841 32.0087 7.69336 29.9986 7.69336Z" fill="#897662"></path></g><defs><clipPath id="clip0_1032_5"><rect fill="white" height="60" width="60"></rect></clipPath></defs></svg>