<svg fill="none" height="59" viewBox="0 0 59 59" width="59" xmlns="http://www.w3.org/2000/svg"><g clip-path="url(#clip0_190_185)"><path d="M43.7583 39.5706L46.9182 38.4205C47.5099 38.2078 48.157 38.5113 48.3719 39.0986C48.5868 39.688 48.2833 40.3373 47.6938 40.5522L44.5339 41.7023C44.4054 41.7489 44.2746 41.771 44.1461 41.771C43.683 41.771 43.2486 41.4851 43.0802 41.0242C42.8653 40.4348 43.1689 39.7855 43.7583 39.5706ZM39.0007 48.585L26.3631 43.9869C25.777 43.7742 25.1232 44.0756 24.9094 44.6651C24.6945 45.2545 24.9981 45.9038 25.5875 46.1187L38.2251 50.7168C38.3536 50.7633 38.4844 50.7855 38.6129 50.7855C39.076 50.7855 39.5103 50.4996 39.6787 50.0387C39.8937 49.4493 39.5901 48.8 39.0007 48.585ZM17.5159 41.5671L14.7814 40.5722C14.1942 40.3617 13.5416 40.663 13.3278 41.2503C13.1128 41.8397 13.4164 42.489 14.0058 42.7039L16.7403 43.6989C16.8677 43.7454 16.9996 43.7676 17.1281 43.7676C17.5913 43.7676 18.0266 43.4817 18.194 43.0208C18.4089 42.4314 18.1053 41.7821 17.5159 41.5671ZM52.1723 54.1183C51.0909 57.0921 48.753 59 46.4529 59C45.998 59 45.5456 58.9232 45.1052 58.7662C45.0933 58.7625 45.0814 58.7646 45.0695 58.7603L29.4991 53.0908L19.8655 56.594C19.2847 56.8152 18.6302 56.511 18.4181 55.921C18.1969 55.3309 18.5011 54.6857 19.0911 54.4644L26.1803 51.8831L23.5723 50.9331L20.7545 51.9599C20.626 52.0065 20.4941 52.0286 20.3656 52.0286C19.9025 52.0286 19.467 51.7428 19.2997 51.2819C19.0848 50.6947 19.3884 50.0431 19.9767 49.8282L20.2578 49.7257L14.6049 47.6666C15.3459 48.4559 15.9726 49.4593 16.4001 50.6348C16.9962 52.2724 17.1048 53.9898 16.7093 55.47C16.2794 57.0744 15.27 58.2732 13.9382 58.7563C13.4851 58.9224 13.0198 59 12.5522 59C10.2542 59 7.91641 57.0921 6.83389 54.1183C5.53205 50.5395 6.61231 46.9718 9.29472 45.9968C9.42644 45.9495 9.55991 45.9151 9.69349 45.8821L9.64189 45.8633L9.29158 45.7342C7.96408 45.2549 6.94998 44.0564 6.52595 42.4524C6.12955 40.9682 6.24017 39.2534 6.83013 37.6125C7.42937 35.9808 8.45264 34.598 9.70644 33.713C10.3203 33.2827 10.9699 33.0093 11.6197 32.8642C10.7533 30.9396 10.2985 28.7656 10.2985 26.389C10.2985 20.9832 14.7781 13.7315 18.9928 9.65299C19.569 9.09792 20.4199 8.99489 21.1057 9.39596C21.796 9.79928 22.1239 10.5915 21.9223 11.3682C21.6919 12.2523 21.5567 13.0346 21.5988 14.2046C21.6199 14.7807 21.8825 16.1446 23.8635 16.374C26.8595 16.7208 27.7835 14.3187 28.0749 12.8595C28.2765 11.8434 28.1846 10.5083 28.0959 9.21759C28.0627 8.74782 28.0306 8.28131 28.0118 7.82819C27.8732 4.61171 28.3719 2.21074 29.4931 0.690584C29.8687 0.182041 30.4648 -0.065022 31.1019 0.014711C31.7567 0.104456 32.3096 0.545471 32.5456 1.16593C33.6126 3.97021 35.6391 5.64544 37.2678 6.99168L37.8151 7.44593C45.1787 13.6528 48.8417 20.1489 48.7043 26.7513C48.6591 28.9158 48.1306 30.9723 47.2303 32.8371C47.9324 32.9657 48.638 33.2461 49.3009 33.713C50.5547 34.598 51.578 35.9808 52.168 37.6125C52.7672 39.2534 52.8778 40.9682 52.4814 42.4524C52.0481 44.0564 51.0433 45.2548 49.7065 45.7342L49.3562 45.8633L49.7065 45.9924C49.7126 45.9946 49.7164 45.9998 49.7224 46.0022C51.0481 46.4882 52.0539 47.6837 52.4803 49.2831C52.877 50.7633 52.7684 52.4807 52.1723 54.1183ZM45.8853 35.0943C43.74 38.073 40.5143 40.3047 36.6804 41.2503L46.0375 44.6557L48.9322 43.6047C49.7895 43.2912 50.1491 42.3786 50.2873 41.8624C50.5639 40.8391 50.4717 39.5761 50.0385 38.3961C49.6051 37.2069 48.8677 36.1744 48.0011 35.5752C47.5658 35.2668 46.7287 34.8106 45.8853 35.0943ZM12.5677 26.389C12.5677 30.3467 13.915 33.5144 16.5708 35.8034C17.6852 36.763 19.0255 37.5473 20.5394 38.1613C19.6572 36.8787 19.1746 35.3162 19.1746 33.5166C19.1746 30.2281 22.0265 27.415 24.4685 26.0045C26.865 24.6196 28.568 23.2202 29.0909 20.8945C29.215 20.345 29.6205 19.9018 30.1501 19.7356C30.6764 19.5783 31.2315 19.6979 31.6382 20.0724C32.5722 20.9356 40.7247 28.6814 39.6477 35.1431C39.5436 35.7614 38.943 36.1824 38.3425 36.076C37.7243 35.9741 37.3077 35.3891 37.4096 34.7708C38.0611 30.8575 33.9893 25.5968 30.9512 22.5609C29.9529 25.1514 27.8112 26.6937 25.603 27.9701C24.0585 28.862 21.4437 31.0336 21.4437 33.5166C21.4437 38.9834 26.8528 39.6792 29.1773 39.7257C29.1788 39.7257 29.18 39.7265 29.1815 39.7266C30.9665 39.7436 32.844 39.6111 34.7881 39.3202C41.2986 38.3452 46.3044 32.9227 46.4351 26.7048C46.4351 26.7048 46.4351 26.7048 46.4351 26.7036C46.5593 20.8203 43.1667 14.9247 36.3526 9.18103L35.823 8.74114C34.2585 7.44706 32.17 5.72192 30.836 2.93205C30.3829 4.06773 30.1912 5.69976 30.2787 7.7307C30.2975 8.16503 30.3286 8.6115 30.3596 9.06136C30.4582 10.5006 30.5612 11.9898 30.2998 13.3027C29.5674 16.9779 26.998 19.0254 23.6042 18.6276C20.5529 18.2753 19.3961 16.0693 19.3319 14.2866C19.3075 13.6118 19.3319 13.0346 19.394 12.5039C15.8661 16.4039 12.5677 22.2407 12.5677 26.389ZM14.2684 51.4104C13.5427 49.4183 12.0059 48.0244 10.673 48.0244C10.4659 48.0244 10.2642 48.0577 10.0703 48.1286C8.63437 48.6516 8.12803 51.0403 8.96567 53.3427C9.80439 55.6451 11.7256 57.1563 13.1627 56.6245C14.0191 56.3121 14.3792 55.4013 14.5166 54.885C14.7903 53.8634 14.6994 52.5959 14.2684 51.4104ZM32.8178 51.8831L42.2516 55.3151C41.9171 53.9242 42.0062 52.2823 42.606 50.6348C43.2048 48.9874 44.1927 47.6719 45.3433 46.821L42.7188 45.8633L31.8685 41.9109C31.0714 41.9633 30.2841 41.9948 29.5141 41.9948C29.4095 41.9948 29.3102 41.9856 29.2061 41.9846C29.1883 41.9855 29.1732 41.9948 29.1552 41.9948C29.1474 41.9948 29.1408 41.9948 29.133 41.9948C28.9141 41.9905 28.705 41.9733 28.492 41.961C22.9957 41.7913 18.2869 40.2771 15.0905 37.523C14.2253 36.7776 13.4846 35.937 12.8483 35.0254C12.7561 35.0111 12.6647 35.0036 12.5734 35.0036C11.9281 35.0036 11.3473 35.3355 11.0062 35.5752C10.1397 36.1744 9.40219 37.2069 8.96888 38.3961C8.53563 39.5761 8.44341 40.8391 8.72001 41.8624C8.85826 42.3786 9.21781 43.2913 10.0659 43.6047L12.9606 44.6557L16.2886 45.8725L29.4991 50.6755L32.8178 51.8831ZM50.2887 49.8681C50.1513 49.3518 49.7923 48.441 48.9347 48.1286C47.5143 47.6034 45.5754 49.1058 44.7377 51.4104C43.9001 53.7128 44.4076 56.1016 45.8435 56.6245C47.2839 57.1608 49.2051 55.6429 50.0405 53.3427C50.4726 52.1572 50.5635 50.8896 50.2887 49.8681Z" fill="#927F6B"></path></g><defs><clipPath id="clip0_190_185"><rect fill="white" height="59" width="59"></rect></clipPath></defs></svg>